<?xml version="1.0" encoding="UTF-8" standalone="no"?>
<svg xmlns="http://www.w3.org/2000/svg" xmlns:xlink="http://www.w3.org/1999/xlink" width="744.09448819" height="1052.3622047">
  <defs>
    <linearGradient id="a" x1="215.76559" x2="222.8434" y1="-278.12701" y2="-212.7417" gradientTransform="matrix(1 0 0 -1 -156 -197)" gradientUnits="userSpaceOnUse">
      <stop offset="0" stop-color="#20abff"/>
      <stop offset=".5838" stop-color="#1572de"/>
      <stop offset=".8528" stop-color="#0938bc"/>
    </linearGradient>
    <linearGradient id="b" x1="186.625" x2="186.625" y1="-258.70209" y2="-248.506" gradientTransform="matrix(1 0 0 -1 -156 -197)" gradientUnits="userSpaceOnUse">
      <stop offset="0" stop-color="#20d4ff"/>
      <stop offset="1" stop-color="#20adff"/>
    </linearGradient>
    <linearGradient id="c" x1="237.36909" x2="237.36909" y1="-274.5654" y2="-223.01669" gradientTransform="matrix(1 0 0 -1 -156 -197)" gradientUnits="userSpaceOnUse">
      <stop offset="0" stop-color="#3aefff"/>
      <stop offset=".5482" stop-color="#20abff"/>
      <stop offset=".619" stop-color="#1ea1f9"/>
      <stop offset=".7399" stop-color="#1986e9"/>
      <stop offset=".8955" stop-color="#105ad0"/>
      <stop offset="1" stop-color="#0938bc"/>
    </linearGradient>
    <linearGradient id="d" x1="199.0293" x2="278.44339" y1="-265.77731" y2="-265.77731" gradientTransform="matrix(1 0 0 -1 -156 -197)" gradientUnits="userSpaceOnUse">
      <stop offset="0" stop-color="#20abff"/>
      <stop offset="1" stop-color="#2057d9"/>
    </linearGradient>
    <linearGradient id="e" x1="183.9668" x2="183.9668" y1="-253.47659" y2="-250.61259" gradientTransform="matrix(1 0 0 -1 -156 -197)" gradientUnits="userSpaceOnUse">
      <stop offset="0" stop-color="#a3e0ff"/>
      <stop offset="1" stop-color="#fff"/>
    </linearGradient>
    <linearGradient id="f" x1="116.0586" x2="116.0586" y1="-316.23441" y2="-313.37051" gradientTransform="scale(1 -1) rotate(19.118 -664.75675526 -285.27594565)" gradientUnits="userSpaceOnUse">
      <stop offset="0" stop-color="#a3e0ff"/>
      <stop offset="1" stop-color="#fff"/>
    </linearGradient>
    <linearGradient xlink:href="#a" id="h" x1="215.76559" x2="222.8434" y1="-278.12701" y2="-212.7417" gradientTransform="matrix(0 -8.18186 -9.16965 0 -1912.8376 2319.9818)" gradientUnits="userSpaceOnUse"/>
    <linearGradient xlink:href="#b" id="i" x1="186.625" x2="186.625" y1="-258.70209" y2="-248.506" gradientTransform="matrix(0 -8.18186 -9.16965 0 -1912.8376 2319.9818)" gradientUnits="userSpaceOnUse"/>
    <linearGradient xlink:href="#c" id="j" x1="237.36909" x2="237.36909" y1="-274.5654" y2="-223.01669" gradientTransform="matrix(0 -8.18186 -9.16965 0 -1912.8376 2319.9818)" gradientUnits="userSpaceOnUse"/>
    <linearGradient xlink:href="#d" id="k" x1="199.0293" x2="278.44339" y1="-265.77731" y2="-265.77731" gradientTransform="matrix(0 -8.18186 -9.16965 0 -1912.8376 2319.9818)" gradientUnits="userSpaceOnUse"/>
    <linearGradient xlink:href="#e" id="l" x1="183.9668" x2="183.9668" y1="-253.47659" y2="-250.61259" gradientTransform="matrix(0 -8.18186 -9.16965 0 -1912.8376 2319.9818)" gradientUnits="userSpaceOnUse"/>
    <linearGradient xlink:href="#f" id="m" x1="116.0586" x2="116.0586" y1="-316.23441" y2="-313.37051" gradientTransform="matrix(-3.00306 -7.73022 -8.66348 2.67956 -1958.4511 2107.9922)" gradientUnits="userSpaceOnUse"/>
    <filter id="g" color-interpolation-filters="sRGB">
      <feGaussianBlur in="SourceGraphic" stdDeviation="2"/>
    </filter>
  </defs>
  <path d="M7.333 54.584S75 39.25 121.877 57.971c.996 1.155.379 2.506-1.603 3.453-1.978.945-68.924 25.151-68.924 25.151s-3.244 1.307-4.803 1.264c-2.569-.069-4.087-.8-4.129-6.866-.027-3.962 1.748-10.556 1.748-10.556l-35.2-.062s-2.428.155-4.381-1.938C2.71 66.406 7.333 54.584 7.333 54.584z" enable-background="new" filter="url(#g)" opacity=".5" transform="matrix(0 -8.18186 -9.31448 0 860.24813126 1043.6117)"/>
  <path fill="url(#h)" d="M456.66321 1016.8652s-60.26292.6218-80.37195.6873c-28.85688.098-80.34444-8.9592-127.47642-27.57289-47.13198-18.60555-60.06119-23.52284-60.06119-40.06656 0-16.54372 2.88844-343.93265 2.88844-343.93265L49.475897 578.39936s-29.361208-4.13184-34.771299-19.99647c-5.4100913-15.85644 10.811013-44.11658 10.811013-44.11658S205.35071 186.46375 265.03594 78.921386c4.86908-8.787317 19.11871-33.954717 29.36121-34.118354 17.00969-.286365 104.30473-1.399098 104.30473-1.399098s22.9883-3.100925 31.67195 13.115521c8.67449 16.175536 230.62578 563.926475 230.62578 563.926475s12.00307 26.55014 11.60877 39.30565c-.64187 21.02738-7.33572 33.43926-62.95879 33.7829-36.33014.22909-93.47538-8.95913-93.47538-8.95913l-3.86959 282.66687s1.4213 19.86556-17.77077 35.84478c-18.46767 15.3328-37.87064 13.7782-37.87064 13.7782z" transform="matrix(-1.0158 0 0 1 752.15 0)"/>
  <path fill="url(#i)" d="m496.45948 638.91239.77942 331.61076-11.60878 16.5519s-28.57261 4.8273-60.25374 4.13184c-31.68113-.69546-31.68113-.68728-31.68113-.68728s-29.35204.68728-30.13146-28.9556c-.77942-29.64287-2.31992-366.76003-2.31992-366.76003l135.21561 44.10841z" transform="matrix(-1.0158 0 0 1 752.15 0)"/>
  <path fill="#20bfff" d="M316.32896332 1017.1352s-49.4692112 6.2019-68.8805883-14.9973c-9.9106049-10.83283-15.86256486-24.12017-16.10474057-34.2984-1.56483235-70.32308-3.53018256-283.26415-3.53018256-283.26415s-66.71032176 10.93914-91.03043725 9.56459c-21.15318127-1.20273-35.42296925-19.81646-35.42296925-19.81646s53.17637574-8.82005 76.52777824-15.77463c21.96355212-6.54549 71.60042032-23.42466 82.10715472-15.59462 9.03505047 6.7173-2.52422035 321.78435-2.52422035 321.78435s-1.8628971 23.95648 12.85398294 35.85292c13.68297331 11.0537 46.00422238 16.5437 46.00422238 16.5437z"/>
  <path fill="url(#j)" d="m615.44481 671.39437-477.491-110.30783-7.73001-38.61019L397.55567 86.784152s13.91952-16.543719 23.18087 4.140021c9.27051 20.667377 227.1413 557.045537 227.1413 557.045537s6.88641 16.90372 0 24.82376c-5.39175 6.18548-32.43303-1.3991-32.43303-1.3991z" transform="matrix(-1.0158 0 0 1 752.15 0)"/>
  <path fill="url(#k)" d="M649.06073 641.22785S424.51443 100.64422 418.9943 87.455065c-5.53846-13.262794-16.51453-42.013848-34.61541-42.521123-31.85535-.908187 37.53136-10.350053 45.65567 8.738225 6.64799 15.627352 232.56057 569.801053 232.56057 569.801053s10.04993 18.26191 9.83903 38.77383c-.26592 29.29924-32.82734 29.29924-32.82734 29.29924s15.23996-21.37102 15.23996-29.64288-5.78605-20.67556-5.78605-20.67556z" transform="matrix(-1.0158 0 0 1 752.15 0)"/>
  <path fill="#fff" d="M419.54273527 997.99783s69.26248663-20.85556 95.36166567-29.99469c28.53026113-9.99005 27.27280837-18.09828 27.27280837-18.09828l-.78241617-361.94091s74.23641876-11.65097 111.44777249-19.30101c36.8853475-7.58458 64.8474216-13.14006 66.3191096-19.98828 2.5149106-11.68369-176.29519815-337.64079-186.4107194-339.88262-12.79810404-2.83092-85.86089345 42.28385-139.6986026 129.95247-48.2676475 78.59494-47.88574918 79.62586-71.4234485 135.48341-23.53768916 55.84119-33.74636897 97.20049-34.52878514 127.53883-.78241618 30.33015-4.42437682 39.72292 2.3658782 43.86295 8.98847627 5.49002 39.24191189-16.97736 55.7099211-16.97736 15.74147193 0 33.06640589 3.9682 53.1670609 28.61196 23.3514025 28.60378 23.21169005 108.43418 22.36406998 145.28528-1.0525364 46.78387-1.1643145 195.44825-1.1643145 195.44825z" enable-background="new" opacity=".6"/>
  <path fill="url(#l)" d="M397.55567 633.47145c9.38055 0 17.00052 6.79095 17.00052 15.16917v332.29804c0 8.37004-7.59246 15.16916-17.00052 15.16916-9.38055 0-17.00052-6.79094-17.00052-15.16916V648.64062c0-8.37822 7.61997-15.16917 17.00052-15.16917z" enable-background="new" opacity=".7" transform="matrix(-1.0158 0 0 1 752.15 0)"/>
  <path fill="url(#m)" d="M301.97128 64.799496c8.87621-2.740923 20.44831 6.349123 25.89508 20.348285L543.39889 639.96785c5.4376 13.9828 2.6592 27.54832-6.22619 30.29742-8.86704 2.73274-20.44831-6.38185-25.88591-20.35646L295.74509 95.072376c-5.4376-13.982798-2.65003-27.523775 6.22619-30.27288z" enable-background="new" opacity=".7" transform="matrix(-1.0158 0 0 1 752.15 0)"/>
</svg>
