<?xml version="1.0" encoding="UTF-8"?>
<!DOCTYPE svg PUBLIC "-//W3C//DTD SVG 1.1//EN" "http://www.w3.org/Graphics/SVG/1.1/DTD/svg11.dtd">
<svg xmlns="http://www.w3.org/2000/svg" version="1.1" width="3840px" height="2160px" style="shape-rendering:geometricPrecision; text-rendering:geometricPrecision; image-rendering:optimizeQuality; fill-rule:evenodd; clip-rule:evenodd" xmlns:xlink="http://www.w3.org/1999/xlink">
<g><path style="opacity:0.997" fill="#000000" d="M 2446.5,51.5 C 2591.5,51.1667 2736.5,51.5 2881.5,52.5C 2582.56,480.064 2283.39,907.397 1984,1334.5C 1911.41,1231.05 1838.91,1127.38 1766.5,1023.5C 1992.72,699.017 2219.39,375.017 2446.5,51.5 Z"/></g>
<g><path style="opacity:0.997" fill="#000000" d="M 2880.5,206.5 C 2881.17,215.827 2881.5,225.327 2881.5,235C 2880.14,314.686 2878.47,394.353 2876.5,474C 2876.59,487.068 2876.92,500.068 2877.5,513C 2876.83,516.333 2876.17,519.667 2875.5,523C 2875.83,538.667 2876.17,554.333 2876.5,570C 2866.55,1071.41 2856.55,1573.58 2846.5,2076.5C 2846.78,2086.63 2847.12,2096.8 2847.5,2107C 2751.83,2107.5 2656.17,2107.67 2560.5,2107.5C 2558.71,2022.53 2556.37,1937.37 2553.5,1852C 2553.2,1840.13 2553.53,1828.13 2554.5,1816C 2553.83,1814.33 2553.17,1812.67 2552.5,1811C 2552.83,1799.33 2553.17,1787.67 2553.5,1776C 2552.83,1775.33 2552.17,1774.67 2551.5,1774C 2551.56,1763.52 2551.89,1753.02 2552.5,1742.5C 2543.47,1410.46 2534.47,1079.96 2525.5,751C 2525.37,738.372 2525.54,725.538 2526,712.5C 2644.44,543.922 2762.61,375.256 2880.5,206.5 Z"/></g>
<g><path style="opacity:0.997" fill="#000000" d="M 1007.5,712.5 C 1152.17,712.333 1296.83,712.5 1441.5,713C 1475.79,761.079 1509.96,809.245 1544,857.5C 1835.15,1274.32 2126.65,1690.82 2418.5,2107C 2273.5,2107.67 2128.5,2107.67 1983.5,2107C 1932.11,2036.08 1882.11,1964.74 1833.5,1893C 1794.32,1838.14 1755.49,1782.97 1717,1727.5C 1481.16,1391.3 1245.16,1054.64 1009,717.5C 1007.99,715.975 1007.49,714.308 1007.5,712.5 Z"/></g>
<g><path style="opacity:0.997" fill="#000000" d="M 1440.5,1487.5 C 1445.2,1492.51 1449.7,1497.84 1454,1503.5C 1522.38,1601.75 1590.88,1699.92 1659.5,1798C 1638.45,1827.93 1617.29,1857.76 1596,1887.5C 1545.22,1960.87 1494.06,2034.04 1442.5,2107C 1297.5,2107.83 1152.5,2107.67 1007.5,2106.5C 1152.21,1900.45 1296.54,1694.12 1440.5,1487.5 Z"/></g>
</svg>
